<?xml version="1.0" encoding="UTF-8" standalone="no"?>
<svg
   fill="none"
   height="28"
   viewBox="0 0 136 28"
   width="136"
   version="1.1"
   id="svg10"
   sodipodi:docname="logo.svg"
   inkscape:version="1.2.2 (732a01da63, 2022-12-09)"
   xmlns:inkscape="http://www.inkscape.org/namespaces/inkscape"
   xmlns:sodipodi="http://sodipodi.sourceforge.net/DTD/sodipodi-0.dtd"
   xmlns="http://www.w3.org/2000/svg"
   xmlns:svg="http://www.w3.org/2000/svg">
  <defs
     id="defs14" />
  <sodipodi:namedview
     id="namedview12"
     pagecolor="#838383"
     bordercolor="#000000"
     borderopacity="0.25"
     inkscape:showpageshadow="2"
     inkscape:pageopacity="0"
     inkscape:pagecheckerboard="0"
     inkscape:deskcolor="#d1d1d1"
     showgrid="false"
     inkscape:zoom="8.8970588"
     inkscape:cx="68"
     inkscape:cy="14.049587"
     inkscape:window-width="1920"
     inkscape:window-height="1009"
     inkscape:window-x="-8"
     inkscape:window-y="-8"
     inkscape:window-maximized="1"
     inkscape:current-layer="svg10" />
  <g
     aria-label="BiblioTech.Digital"
     id="text228"
     style="font-size:16.7739px;font-family:'Bauhaus 93';-inkscape-font-specification:'Bauhaus 93, ';fill:#ffffff;stroke-width:1.39783">
    <path
       d="M 0.12835348,7.5797934 H 4.1907822 q 3.6119577,0 3.6119577,2.8420616 0,1.408746 -1.2367474,2.342449 1.7936933,0.778086 1.7936933,2.776539 0,1.531601 -1.0565591,2.440733 -0.5159939,0.434091 -1.1057013,0.606089 -0.5897074,0.171998 -1.5889338,0.171998 H 3.9778323 v -2.874824 h 0.5651362 q 0.4996132,0 0.7043727,-0.122856 0.2047595,-0.131046 0.2047595,-0.450471 0,-0.540565 -0.8354188,-0.540565 H 3.9778323 v -2.981298 q 0.9173226,0 0.9173226,-0.630659 0,-0.581517 -0.8272284,-0.581517 H 3.4536479 v 8.18219 H 0.12835348 Z"
       id="path280"
       style="fill:#ffffff" />
    <path
       d="m 12.53678,10.593853 v 8.16581 H 9.4735773 v -8.16581 z M 11.013369,6.9491341 q 0.622469,0 1.07294,0.4422805 0.458661,0.4340902 0.458661,1.031988 0,0.6388496 -0.43409,1.0483686 -0.4259,0.4095191 -1.097511,0.4095191 -0.671611,0 -1.1057016,-0.4095191 -0.4258997,-0.409519 -0.4258997,-1.0483686 0,-0.5978978 0.4504709,-1.031988 Q 10.3909,6.9491341 11.013369,6.9491341 Z"
       id="path282"
       style="fill:#ffffff" />
    <path
       d="m 17.221677,7.5797934 v 6.6915406 q 0,1.629886 1.171224,1.629886 0.499613,0 0.843609,-0.335806 0.352187,-0.343996 0.352187,-0.827228 0,-0.499613 -0.327616,-0.835419 -0.327615,-0.343996 -0.802657,-0.343996 -0.335805,0 -0.769896,0.294854 v -3.374437 q 0.540566,-0.04914 0.819039,-0.04914 1.72817,0 2.956727,1.244938 1.236747,1.244937 1.236747,2.997679 0,1.793693 -1.253128,3.02225 -1.253128,1.228557 -3.079583,1.228557 -0.917323,0 -1.793693,-0.401328 -0.868181,-0.401329 -1.433317,-1.081131 -0.982845,-1.179414 -0.982845,-3.055012 V 7.5797934 Z"
       id="path284"
       style="fill:#ffffff" />
    <path
       d="M 27.107466,7.5797934 V 18.759663 H 24.044264 V 7.5797934 Z"
       id="path286"
       style="fill:#ffffff" />
    <path
       d="m 31.964361,10.593853 v 8.16581 h -3.063202 v -8.16581 z m -1.52341,-3.6447189 q 0.622468,0 1.072939,0.4422805 0.458662,0.4340902 0.458662,1.031988 0,0.6388496 -0.43409,1.0483686 -0.4259,0.4095191 -1.097511,0.4095191 -0.671612,0 -1.105702,-0.4095191 -0.4259,-0.409519 -0.4259,-1.0483686 0,-0.5978978 0.450471,-1.031988 0.458662,-0.4422805 1.081131,-0.4422805 z"
       id="path288"
       style="fill:#ffffff" />
    <path
       d="m 37.640295,10.421855 q 1.73636,0 2.973108,1.253129 1.244938,1.244937 1.244938,2.989488 0,1.769123 -1.261319,3.01406 -1.253128,1.244938 -3.030441,1.244938 -1.777312,0 -3.038631,-1.244938 -1.261319,-1.253128 -1.261319,-3.01406 0,-1.793693 1.261319,-3.01406 1.261319,-1.228557 3.112345,-1.228557 z m -0.0819,3.022251 q -0.491423,0 -0.835419,0.360376 -0.343996,0.352187 -0.343996,0.868181 0,0.507803 0.343996,0.86818 0.352186,0.360377 0.835419,0.360377 0.491423,0 0.835419,-0.360377 0.352186,-0.360377 0.352186,-0.86818 0,-0.515994 -0.343996,-0.868181 -0.343996,-0.360376 -0.843609,-0.360376 z"
       id="path290"
       style="fill:#ffffff" />
    <path
       d="m 48.230458,10.790422 v 7.969241 H 44.905164 V 10.790422 H 42.357955 V 7.5797934 h 8.411521 v 3.2106286 z"
       id="path292"
       style="fill:#ffffff" />
    <path
       d="m 59.795274,15.172276 h -4.643946 q -0.106475,-0.352186 -0.106475,-0.64704 0,-0.409519 0.147427,-0.802657 h 1.556173 q -0.163808,-0.909133 -1.023798,-0.909133 -0.573327,0 -0.933703,0.491423 -0.360377,0.483233 -0.360377,1.244938 0,0.794467 0.343996,1.28589 0.352186,0.491423 0.917323,0.491423 0.458661,0 0.884561,-0.458662 l 1.744551,2.096738 q -1.220367,0.958274 -2.711016,0.958274 -1.818265,0 -3.055012,-1.220366 -1.236748,-1.220367 -1.236748,-3.022251 0,-1.793693 1.244938,-3.030441 1.253128,-1.236747 3.071393,-1.236747 1.777312,0 2.981298,1.212176 1.212177,1.203986 1.212177,2.973108 0,0.180189 -0.03276,0.573327 z"
       id="path294"
       style="fill:#ffffff" />
    <path
       d="m 66.077296,15.000278 3.038631,-0.114665 q -0.131046,1.769122 -1.318651,2.907585 -1.187606,1.138463 -2.891205,1.138463 -1.801883,0 -3.046821,-1.253129 -1.236748,-1.253128 -1.236748,-3.071392 0,-1.728171 1.253129,-2.956728 1.253128,-1.228557 3.005869,-1.228557 1.531601,0 2.702826,0.966465 1.171224,0.966465 1.457887,2.465305 l -3.104154,0.114665 q -0.401328,-0.524184 -1.015607,-0.524184 -0.524184,0 -0.85999,0.343996 -0.335805,0.343996 -0.335805,0.86818 0,0.532375 0.352186,0.892752 0.360377,0.360376 0.892751,0.360376 0.778086,0 1.105702,-0.909132 z"
       id="path296"
       style="fill:#ffffff" />
    <path
       d="m 73.514158,7.5797934 v 3.4153886 q 0.778087,-0.565136 1.556173,-0.565136 1.179414,0 1.867406,0.851799 0.696183,0.8518 0.696183,2.301497 v 5.176321 h -3.063203 v -4.316331 q 0,-0.524184 -0.114665,-0.704373 -0.106475,-0.180188 -0.4259,-0.180188 -0.515994,0 -0.515994,0.761705 v 4.439187 H 70.450956 V 7.5797934 Z"
       id="path298"
       style="fill:#ffffff" />
    <path
       d="m 81.688159,15.090372 q 0.802657,0 1.375984,0.581517 0.581517,0.581517 0.581517,1.384175 0,0.802657 -0.573327,1.367793 -0.573326,0.556946 -1.384174,0.556946 -0.843609,0 -1.392364,-0.540565 -0.540566,-0.548756 -0.540566,-1.392365 0,-0.819038 0.565137,-1.384174 0.565136,-0.573327 1.367793,-0.573327 z"
       id="path300"
       style="fill:#ffffff" />
    <path
       d="m 89.321598,10.790422 v 7.969241 H 85.996304 V 7.5797934 h 4.332711 q 2.850253,0 4.463757,1.2940801 1.916549,1.5479815 1.916549,4.2016655 0,2.539018 -1.638076,4.144332 -1.638076,1.605315 -4.218045,1.605315 -0.303045,0 -0.991037,-0.03276 v -3.284342 h 0.532375 q 2.907585,0 2.907585,-2.432543 0,-2.285117 -2.858443,-2.285117 z"
       id="path302"
       style="fill:#ffffff" />
    <path
       d="m 101.10755,10.593853 v 8.16581 h -3.063202 v -8.16581 z M 99.584139,6.9491341 q 0.622471,0 1.072941,0.4422805 0.45866,0.4340902 0.45866,1.031988 0,0.6388496 -0.43409,1.0483686 -0.4259,0.4095191 -1.097511,0.4095191 -0.671611,0 -1.105701,-0.4095191 -0.4259,-0.409519 -0.4259,-1.0483686 0,-0.5978978 0.450471,-1.031988 0.458661,-0.4422805 1.08113,-0.4422805 z"
       id="path304"
       style="fill:#ffffff" />
    <path
       d="m 107.26672,15.393416 v 2.809301 q -0.66342,0.245711 -1.26951,0.245711 -1.48246,0 -2.51445,-1.122082 -1.02379,-1.122082 -1.02379,-2.743777 0,-1.752742 1.23674,-2.956728 1.23675,-1.203986 3.03863,-1.203986 0.95828,0 1.83465,0.384948 0.87637,0.384948 1.37598,1.031988 0.83542,1.07294 0.83542,3.112345 v 2.686445 q 0,2.186831 -1.24494,3.546434 -1.23674,1.367794 -3.22701,1.367794 -0.60608,0 -1.5316,-0.303044 v -2.78473 q 0.5979,0.327616 1.21218,0.327616 0.82723,0 1.2777,-0.548756 0.45047,-0.540565 0.45047,-1.556172 V 14.61533 q 0,-1.28589 -1.04018,-1.28589 -0.44228,0 -0.77808,0.343996 -0.32762,0.335806 -0.32762,0.778087 0,0.466851 0.31124,0.778086 0.31942,0.311234 0.78627,0.311234 0.31124,0 0.5979,-0.147427 z"
       id="path306"
       style="fill:#ffffff" />
    <path
       d="m 115.64548,10.593853 v 8.16581 h -3.06321 v -8.16581 z m -1.52342,-3.6447189 q 0.62247,0 1.07294,0.4422805 0.45867,0.4340902 0.45867,1.031988 0,0.6388496 -0.43409,1.0483686 -0.4259,0.4095191 -1.09752,0.4095191 -0.67161,0 -1.1057,-0.4095191 -0.4259,-0.409519 -0.4259,-1.0483686 0,-0.5978978 0.45047,-1.031988 0.45867,-0.4422805 1.08113,-0.4422805 z"
       id="path308"
       style="fill:#ffffff" />
    <path
       d="m 120.17476,7.5797934 v 3.1287256 h 1.37598 v 3.2352 h -1.37598 q 0,0.974655 0.30304,1.343222 0.31124,0.368567 1.13028,0.368567 v 3.21882 q -0.23753,0.0082 -0.35219,0.0082 -1.04018,0 -1.96569,-0.483232 -0.91732,-0.483233 -1.47427,-1.310461 -0.70437,-1.056559 -0.70437,-2.80111 V 7.5797934 Z"
       id="path310"
       style="fill:#ffffff" />
    <path
       d="m 127.59525,15.69646 v 3.169678 q -0.37676,0.06552 -0.688,0.06552 -1.84283,0 -3.07139,-1.212177 -1.22856,-1.212176 -1.22856,-3.038631 0,-1.777312 1.23675,-3.01406 1.24494,-1.236747 3.02225,-1.236747 1.98207,0 3.12054,1.163034 1.14665,1.154843 1.14665,3.161487 v 4.005096 h -3.0632 v -3.783956 q 0,-0.64704 -0.31943,-1.031988 -0.31123,-0.384948 -0.84361,-0.384948 -0.48323,0 -0.83541,0.352186 -0.35219,0.352187 -0.35219,0.835419 0,0.507804 0.31942,0.835419 0.31943,0.327615 0.81085,0.327615 0.40133,0 0.74533,-0.21295 z"
       id="path312"
       style="fill:#ffffff" />
    <path
       d="M 135.9822,7.5797934 V 18.759663 H 132.919 V 7.5797934 Z"
       id="path314"
       style="fill:#ffffff" />
  </g>
</svg>
